<svg width="61" height="17" viewBox="0 0 61 17" fill="none" xmlns="http://www.w3.org/2000/svg">
<path d="M11.0669 6.16501C10.7369 5.57874 10.2831 5.13238 9.70557 4.82592C9.12804 4.51946 8.45425 4.36623 7.68421 4.36623C6.83166 4.36623 6.07537 4.55277 5.41534 4.92585C4.7553 5.29893 4.23965 5.8319 3.86838 6.52477C3.49711 7.21763 3.31147 8.01709 3.31147 8.92314C3.31147 9.85584 3.49711 10.6686 3.86838 11.3615C4.2534 12.0543 4.7828 12.5873 5.45659 12.9604C6.13038 13.3335 6.91417 13.52 7.80797 13.52C8.90803 13.52 9.8087 13.2402 10.51 12.6806C11.2113 12.1076 11.6719 11.3148 11.8919 10.3022H6.94167V8.16365H14.7383V10.602C14.5458 11.5747 14.1333 12.4741 13.5008 13.3002C12.8682 14.1263 12.0501 14.7925 11.0463 15.2988C10.0562 15.7918 8.94241 16.0383 7.70484 16.0383C6.31601 16.0383 5.05782 15.7385 3.93026 15.1389C2.81644 14.526 1.9364 13.6799 1.29011 12.6006C0.657576 11.5214 0.341309 10.2955 0.341309 8.92314C0.341309 7.55074 0.657576 6.3249 1.29011 5.24563C1.9364 4.15304 2.81644 3.30695 3.93026 2.70736C5.05782 2.09444 6.30914 1.78798 7.68421 1.78798C9.3068 1.78798 10.7163 2.17438 11.9126 2.94719C13.1089 3.70668 13.9339 4.77928 14.3877 6.16501H11.0669Z" fill="#2F2F2F"/>
<path d="M19.7624 6.56474C20.1337 5.97847 20.615 5.51878 21.2063 5.18567C21.8113 4.85257 22.4988 4.68601 23.2689 4.68601V7.62402H22.5057C21.5981 7.62402 20.9106 7.83055 20.4431 8.2436C19.9893 8.65665 19.7624 9.37616 19.7624 10.4021V15.9184H16.8748V4.8459H19.7624V6.56474Z" fill="#2F2F2F"/>
<path d="M26.6783 3.5268C26.1695 3.5268 25.7432 3.37357 25.3995 3.06711C25.0695 2.74733 24.9045 2.35426 24.9045 1.88791C24.9045 1.42156 25.0695 1.03516 25.3995 0.728698C25.7432 0.408915 26.1695 0.249023 26.6783 0.249023C27.1871 0.249023 27.6065 0.408915 27.9365 0.728698C28.2803 1.03516 28.4521 1.42156 28.4521 1.88791C28.4521 2.35426 28.2803 2.74733 27.9365 3.06711C27.6065 3.37357 27.1871 3.5268 26.6783 3.5268ZM28.1015 4.8459V15.9184H25.2138V4.8459H28.1015Z" fill="#2F2F2F"/>
<path d="M36.1936 7.14435H34.1928V15.9184H31.2639V7.14435H29.9645V4.8459H31.2639V4.28628C31.2639 2.92721 31.6627 1.92788 32.4602 1.28832C33.2578 0.648752 34.461 0.348956 36.0698 0.388929V2.74733C35.3685 2.734 34.8804 2.84726 34.6053 3.0871C34.3303 3.32694 34.1928 3.75998 34.1928 4.38622V4.8459H36.1936V7.14435Z" fill="#2F2F2F"/>
<path d="M43.3039 7.14435H41.3032V15.9184H38.3743V7.14435H37.0748V4.8459H38.3743V4.28628C38.3743 2.92721 38.7731 1.92788 39.5706 1.28832C40.3681 0.648752 41.5713 0.348956 43.1802 0.388929V2.74733C42.4789 2.734 41.9907 2.84726 41.7157 3.0871C41.4407 3.32694 41.3032 3.75998 41.3032 4.38622V4.8459H43.3039V7.14435Z" fill="#2F2F2F"/>
<path d="M55.7977 10.1423C55.7977 10.542 55.7702 10.9018 55.7152 11.2216H47.3616C47.4304 12.021 47.7192 12.6473 48.2279 13.1003C48.7367 13.5533 49.3624 13.7798 50.1049 13.7798C51.1775 13.7798 51.9406 13.3335 52.3944 12.4408H55.509C55.1789 13.5067 54.5464 14.3861 53.6113 15.079C52.6763 15.7585 51.5281 16.0983 50.1668 16.0983C49.0667 16.0983 48.0767 15.8651 47.1966 15.3987C46.3303 14.9191 45.6497 14.2462 45.1546 13.3801C44.6734 12.514 44.4327 11.5147 44.4327 10.3821C44.4327 9.23626 44.6734 8.23028 45.1546 7.3642C45.6359 6.49812 46.3097 5.8319 47.176 5.36555C48.0423 4.8992 49.0392 4.66603 50.1668 4.66603C51.2531 4.66603 52.2225 4.89254 53.0751 5.34557C53.9414 5.79859 54.6083 6.44482 55.0758 7.28425C55.5571 8.11036 55.7977 9.06304 55.7977 10.1423ZM52.8069 9.34285C52.7932 8.62334 52.525 8.0504 52.0025 7.62402C51.48 7.18432 50.8406 6.96447 50.0843 6.96447C49.3692 6.96447 48.7642 7.17766 48.2692 7.60403C47.7879 8.01709 47.4923 8.59669 47.3823 9.34285H52.8069Z" fill="#2F2F2F"/>
<path d="M60.7931 1.12843V15.9184H57.9054V1.12843H60.7931Z" fill="#2F2F2F"/>
</svg>
