<svg width="66" height="17" viewBox="0 0 66 17" fill="none" xmlns="http://www.w3.org/2000/svg">
<path d="M6.01404 16.0466C5.01024 16.0466 4.10269 15.88 3.29139 15.5469C2.49385 15.2138 1.86131 14.7341 1.39379 14.1079C0.926264 13.4817 0.685626 12.7422 0.671875 11.8894H3.76579C3.80705 12.4623 4.01331 12.9154 4.38458 13.2485C4.7696 13.5816 5.29213 13.7481 5.95216 13.7481C6.62595 13.7481 7.15535 13.5949 7.54037 13.2885C7.9254 12.9687 8.11791 12.5556 8.11791 12.0493C8.11791 11.6362 7.98727 11.2965 7.72601 11.03C7.46475 10.7635 7.13473 10.557 6.73596 10.4104C6.35094 10.2505 5.81466 10.0773 5.12712 9.89076C4.19207 9.62427 3.4289 9.36445 2.83762 9.11129C2.26009 8.8448 1.75818 8.45173 1.33191 7.93209C0.919389 7.39911 0.713127 6.69293 0.713127 5.81352C0.713127 4.98742 0.926264 4.2679 1.35254 3.65499C1.77881 3.04207 2.37697 2.57572 3.14701 2.25594C3.91705 1.92283 4.7971 1.75628 5.78715 1.75628C7.27224 1.75628 8.47543 2.10937 9.39673 2.81556C10.3318 3.50842 10.8474 4.48109 10.9437 5.73358H7.76726C7.73976 5.2539 7.52662 4.86084 7.12785 4.55438C6.74283 4.23459 6.22718 4.0747 5.58089 4.0747C5.01711 4.0747 4.56334 4.21461 4.21957 4.49442C3.88955 4.77423 3.72454 5.18062 3.72454 5.71359C3.72454 6.08667 3.8483 6.39979 4.09581 6.65295C4.35708 6.89279 4.67334 7.09265 5.04461 7.25255C5.42963 7.39911 5.96591 7.57233 6.65345 7.77219C7.5885 8.03868 8.35167 8.30517 8.94295 8.57165C9.53423 8.83814 10.043 9.23787 10.4693 9.77084C10.8956 10.3038 11.1087 11.0033 11.1087 11.8694C11.1087 12.6156 10.9093 13.3084 10.5105 13.948C10.1118 14.5876 9.52736 15.1006 8.75732 15.487C7.98727 15.86 7.07285 16.0466 6.01404 16.0466Z" fill="#2F2F2F"/>
<path d="M16.9742 7.13263V12.489C16.9742 12.8621 17.0636 13.1352 17.2424 13.3084C17.4349 13.4683 17.7512 13.5483 18.1912 13.5483H19.5319V15.9067H17.7168C15.2829 15.9067 14.066 14.7608 14.066 12.469V7.13263H12.7046V4.83419H14.066V2.09604H16.9742V4.83419H19.5319V7.13263H16.9742Z" fill="#2F2F2F"/>
<path d="M32.3963 4.83419V15.9067H29.488V14.5076C29.1168 14.9873 28.6286 15.367 28.0236 15.6469C27.4323 15.9133 26.786 16.0466 26.0847 16.0466C25.1909 16.0466 24.4002 15.8667 23.7127 15.5069C23.0252 15.1339 22.482 14.5942 22.0832 13.888C21.6982 13.1685 21.5057 12.3158 21.5057 11.3298V4.83419H24.3934V10.9301C24.3934 11.8095 24.6203 12.489 25.074 12.9687C25.5278 13.435 26.1466 13.6682 26.9304 13.6682C27.7279 13.6682 28.3536 13.435 28.8074 12.9687C29.2611 12.489 29.488 11.8095 29.488 10.9301V4.83419H32.3963Z" fill="#2F2F2F"/>
<path d="M34.5029 10.3305C34.5029 9.21122 34.7298 8.21856 35.1836 7.35248C35.6511 6.4864 36.2836 5.82018 37.0812 5.35383C37.8787 4.88748 38.7656 4.65431 39.7419 4.65431C40.4845 4.65431 41.1927 4.8142 41.8664 5.13398C42.5402 5.44044 43.0765 5.8535 43.4753 6.37314V1.11671H46.4042V15.9067H43.4753V14.2678C43.1177 14.8141 42.6159 15.2538 41.9696 15.5869C41.3233 15.92 40.5739 16.0866 39.7213 16.0866C38.7588 16.0866 37.8787 15.8467 37.0812 15.367C36.2836 14.8874 35.6511 14.2145 35.1836 13.3484C34.7298 12.469 34.5029 11.463 34.5029 10.3305ZM43.4959 10.3704C43.4959 9.69089 43.3584 9.11129 43.0834 8.63161C42.8084 8.13861 42.4371 7.76553 41.9696 7.51237C41.502 7.24588 41.0001 7.11264 40.4639 7.11264C39.9276 7.11264 39.4326 7.23922 38.9788 7.49238C38.525 7.74555 38.1537 8.11863 37.865 8.61162C37.59 9.0913 37.4524 9.66424 37.4524 10.3305C37.4524 10.9967 37.59 11.5829 37.865 12.0893C38.1537 12.5823 38.525 12.962 38.9788 13.2285C39.4463 13.495 39.9413 13.6282 40.4639 13.6282C41.0001 13.6282 41.502 13.5016 41.9696 13.2485C42.4371 12.982 42.8084 12.6089 43.0834 12.1292C43.3584 11.6362 43.4959 11.05 43.4959 10.3704Z" fill="#2F2F2F"/>
<path d="M50.6889 3.51508C50.1802 3.51508 49.7539 3.36185 49.4101 3.05539C49.0801 2.73561 48.9151 2.34254 48.9151 1.87619C48.9151 1.40984 49.0801 1.02344 49.4101 0.716979C49.7539 0.397196 50.1802 0.237305 50.6889 0.237305C51.1977 0.237305 51.6171 0.397196 51.9471 0.716979C52.2909 1.02344 52.4628 1.40984 52.4628 1.87619C52.4628 2.34254 52.2909 2.73561 51.9471 3.05539C51.6171 3.36185 51.1977 3.51508 50.6889 3.51508ZM52.1121 4.83419V15.9067H49.2245V4.83419H52.1121Z" fill="#2F2F2F"/>
<path d="M60.0392 16.0866C58.9391 16.0866 57.9491 15.8534 57.069 15.387C56.189 14.9074 55.4946 14.2345 54.9858 13.3684C54.4907 12.5023 54.2432 11.503 54.2432 10.3704C54.2432 9.23787 54.4976 8.23854 55.0064 7.37246C55.5289 6.50639 56.2371 5.84017 57.1309 5.37382C58.0247 4.89415 59.0216 4.65431 60.1217 4.65431C61.2217 4.65431 62.2187 4.89415 63.1125 5.37382C64.0063 5.84017 64.7076 6.50639 65.2163 7.37246C65.7389 8.23854 66.0001 9.23787 66.0001 10.3704C66.0001 11.503 65.732 12.5023 65.1957 13.3684C64.6732 14.2345 63.9581 14.9074 63.0506 15.387C62.1568 15.8534 61.153 16.0866 60.0392 16.0866ZM60.0392 13.6482C60.5617 13.6482 61.0499 13.5283 61.5036 13.2885C61.9712 13.0353 62.3424 12.6622 62.6174 12.1692C62.8925 11.6762 63.03 11.0766 63.03 10.3704C63.03 9.31781 62.7412 8.51169 62.1637 7.95207C61.5999 7.37913 60.9055 7.09266 60.0804 7.09266C59.2554 7.09266 58.561 7.37913 57.9972 7.95207C57.4472 8.51169 57.1721 9.31781 57.1721 10.3704C57.1721 11.4231 57.4403 12.2358 57.9766 12.8088C58.5266 13.3684 59.2141 13.6482 60.0392 13.6482Z" fill="#2F2F2F"/>
</svg>
